<svg width="36" height="36" viewBox="0 0 36 36" fill="none" xmlns="http://www.w3.org/2000/svg">
<g clip-path="url(#clip0_12_166)">
<path d="M30.129 6.99146C27.8982 5.96788 25.506 5.21375 23.0049 4.78183C22.9593 4.7735 22.9138 4.79433 22.8903 4.83599C22.5827 5.38318 22.2419 6.09704 22.0033 6.65812C19.3131 6.25537 16.6367 6.25537 14.0017 6.65812C13.763 6.08456 13.4099 5.38318 13.1008 4.83599C13.0774 4.79572 13.0319 4.77489 12.9863 4.78183C10.4865 5.21237 8.09436 5.9665 5.8622 6.99146C5.84287 6.99979 5.82631 7.01369 5.81532 7.03173C1.27786 13.8106 0.0348642 20.4228 0.644638 26.9531C0.647397 26.985 0.665331 27.0156 0.690164 27.035C3.68385 29.2335 6.58374 30.5682 9.42978 31.4529C9.47533 31.4668 9.52359 31.4501 9.55258 31.4126C10.2258 30.4932 10.8259 29.5238 11.3405 28.5044C11.3709 28.4447 11.3419 28.3738 11.2798 28.3502C10.3279 27.9891 9.4215 27.5489 8.54961 27.0489C8.48064 27.0086 8.47512 26.91 8.53856 26.8628C8.72204 26.7253 8.90557 26.5822 9.08077 26.4378C9.11246 26.4114 9.15663 26.4059 9.1939 26.4225C14.9219 29.0377 21.1231 29.0377 26.7835 26.4225C26.8207 26.4045 26.8649 26.4101 26.898 26.4364C27.0732 26.5809 27.2567 26.7253 27.4416 26.8628C27.505 26.91 27.5009 27.0086 27.4319 27.0489C26.56 27.5586 25.6536 27.9891 24.7003 28.3489C24.6383 28.3725 24.6107 28.4447 24.641 28.5044C25.1666 29.5224 25.7667 30.4918 26.4276 31.4112C26.4552 31.4501 26.5048 31.4668 26.5504 31.4529C29.4102 30.5682 32.3101 29.2335 35.3038 27.035C35.33 27.0156 35.3465 26.9864 35.3493 26.9545C36.0791 19.4048 34.127 12.8468 30.1745 7.03311C30.1648 7.01369 30.1483 6.99979 30.129 6.99146ZM12.1959 22.9768C10.4714 22.9768 9.0504 21.3936 9.0504 19.4492C9.0504 17.5049 10.4438 15.9216 12.1959 15.9216C13.9617 15.9216 15.3689 17.5188 15.3413 19.4492C15.3413 21.3936 13.9479 22.9768 12.1959 22.9768ZM23.8257 22.9768C22.1012 22.9768 20.6803 21.3936 20.6803 19.4492C20.6803 17.5049 22.0736 15.9216 23.8257 15.9216C25.5915 15.9216 26.9987 17.5188 26.9711 19.4492C26.9711 21.3936 25.5915 22.9768 23.8257 22.9768Z" fill="#5865F2"/>
</g>
<defs>
<clipPath id="clip0_12_166">
<rect width="35" height="35" fill="white" transform="translate(0.5 0.931213)"/>
</clipPath>
</defs>
</svg>
