<svg width="36" height="36" viewBox="0 0 36 36" fill="none" xmlns="http://www.w3.org/2000/svg">
<g clip-path="url(#clip0_12_170)">
<path d="M35.5 18.4312C35.5 8.76631 27.6649 0.931213 18 0.931213C8.3351 0.931213 0.5 8.76631 0.5 18.4312C0.5 26.638 6.1504 33.5246 13.7727 35.416V23.7792H10.1642V18.4312H13.7727V16.1268C13.7727 10.1705 16.4684 7.40971 22.3162 7.40971C23.425 7.40971 25.3381 7.62741 26.1207 7.84441V12.6919C25.7077 12.6485 24.9902 12.6268 24.0991 12.6268C21.2298 12.6268 20.121 13.7139 20.121 16.5398V18.4312H25.8372L24.8551 23.7792H20.121V35.8031C28.7863 34.7566 35.5007 27.3786 35.5007 18.4312H35.5Z" fill="#0866FF"/>
<path d="M24.8544 23.7792L25.8365 18.4312H20.1203V16.5398C20.1203 13.7139 21.2291 12.6268 24.0984 12.6268C24.9895 12.6268 25.707 12.6485 26.12 12.6919V7.8444C25.3374 7.6267 23.4243 7.4097 22.3155 7.4097C16.4677 7.4097 13.772 10.1705 13.772 16.1268V18.4312H10.1635V23.7792H13.772V35.416C15.1258 35.752 16.5419 35.9312 17.9993 35.9312C18.7168 35.9312 19.4245 35.8871 20.1196 35.8031V23.7792H24.8537H24.8544Z" fill="white"/>
</g>
<defs>
<clipPath id="clip0_12_170">
<rect width="35" height="35" fill="white" transform="translate(0.5 0.931213)"/>
</clipPath>
</defs>
</svg>
