<svg width="36" height="36" viewBox="0 0 36 36" fill="none" xmlns="http://www.w3.org/2000/svg">
<path fill-rule="evenodd" clip-rule="evenodd" d="M18.0145 0.931213C8.32943 0.931213 0.5 8.81836 0.5 18.5758C0.5 26.3755 5.51658 32.9778 12.4759 35.3145C13.346 35.4902 13.6647 34.9348 13.6647 34.4677C13.6647 34.0587 13.636 32.6565 13.636 31.1956C8.76393 32.2475 7.74936 29.0923 7.74936 29.0923C6.96638 27.0473 5.80626 26.5218 5.80626 26.5218C4.21162 25.4409 5.92241 25.4409 5.92241 25.4409C7.69128 25.5577 8.61946 27.252 8.61946 27.252C10.1851 29.9394 12.7079 29.1801 13.7228 28.7126C13.8676 27.5733 14.3319 26.7846 14.8248 26.3465C10.939 25.9374 6.85059 24.4184 6.85059 17.6408C6.85059 15.7128 7.54609 14.1354 8.64814 12.9086C8.47426 12.4705 7.86516 10.6589 8.82237 8.23435C8.82237 8.23435 10.3012 7.76686 13.6357 10.0455C15.0633 9.65929 16.5356 9.46281 18.0145 9.46116C19.4933 9.46116 21.0008 9.66587 22.3929 10.0455C25.7277 7.76686 27.2066 8.23435 27.2066 8.23435C28.1638 10.6589 27.5543 12.4705 27.3805 12.9086C28.5116 14.1354 29.1784 15.7128 29.1784 17.6408C29.1784 24.4184 25.09 25.908 21.1751 26.3465C21.8132 26.9014 22.3639 27.9529 22.3639 29.6182C22.3639 31.9843 22.3352 33.8833 22.3352 34.4674C22.3352 34.9348 22.6543 35.4902 23.524 35.3149C30.4833 32.9774 35.4999 26.3755 35.4999 18.5758C35.5286 8.81836 27.6705 0.931213 18.0145 0.931213Z" fill="#24292F"/>
</svg>
