<svg width="36" height="36" viewBox="0 0 36 36" fill="none" xmlns="http://www.w3.org/2000/svg">
<g clip-path="url(#clip0_12_169)">
<path d="M32.9163 0.931213H3.08368C2.39845 0.931213 1.74128 1.20342 1.25674 1.68796C0.772209 2.17249 0.5 2.82966 0.5 3.51489V33.3475C0.5 34.0328 0.772209 34.6899 1.25674 35.1745C1.74128 35.659 2.39845 35.9312 3.08368 35.9312H32.9163C33.6016 35.9312 34.2587 35.659 34.7433 35.1745C35.2278 34.6899 35.5 34.0328 35.5 33.3475V3.51489C35.5 2.82966 35.2278 2.17249 34.7433 1.68796C34.2587 1.20342 33.6016 0.931213 32.9163 0.931213ZM10.9319 30.7468H5.66979V14.0319H10.9319V30.7468ZM8.29722 11.7156C7.70032 11.7122 7.11779 11.5321 6.62315 11.198C6.12851 10.8639 5.74393 10.3907 5.51795 9.83826C5.29196 9.28578 5.23469 8.67874 5.35338 8.09375C5.47206 7.50876 5.76138 6.97203 6.18481 6.55131C6.60824 6.13059 7.14681 5.84473 7.73256 5.7298C8.3183 5.61488 8.92496 5.67604 9.47597 5.90557C10.027 6.1351 10.4977 6.52271 10.8286 7.01948C11.1595 7.51626 11.3359 8.09993 11.3354 8.69684C11.341 9.09647 11.2662 9.49315 11.1152 9.86322C10.9643 10.2333 10.7404 10.5692 10.4569 10.8509C10.1734 11.1326 9.83603 11.3543 9.46499 11.5029C9.09396 11.6514 8.69681 11.7238 8.29722 11.7156ZM30.3278 30.7614H25.0681V21.6298C25.0681 18.9368 23.9233 18.1055 22.4455 18.1055C20.8851 18.1055 19.3538 19.2819 19.3538 21.6979V30.7614H14.0917V14.0441H19.1521V16.3604H19.2201C19.7281 15.3323 21.5073 13.575 24.2222 13.575C27.1583 13.575 30.3302 15.3177 30.3302 20.4218L30.3278 30.7614Z" fill="#0A66C2"/>
</g>
<defs>
<clipPath id="clip0_12_169">
<rect width="35" height="35" fill="white" transform="translate(0.5 0.931213)"/>
</clipPath>
</defs>
</svg>
