<svg width="36" height="36" viewBox="0 0 36 36" fill="none" xmlns="http://www.w3.org/2000/svg">
<g clip-path="url(#clip0_12_168)">
<path d="M34.8029 9.95167C34.605 9.20706 34.2151 8.52749 33.672 7.98096C33.129 7.43443 32.4519 7.04011 31.7086 6.83746C28.9722 6.10167 18.0347 6.10167 18.0347 6.10167C18.0347 6.10167 7.09723 6.10167 4.36087 6.83746C3.61754 7.04011 2.94048 7.43443 2.39744 7.98096C1.8544 8.52749 1.46442 9.20706 1.26655 9.95167C0.534729 12.7 0.534729 18.4312 0.534729 18.4312C0.534729 18.4312 0.534729 24.1625 1.26655 26.9108C1.46442 27.6554 1.8544 28.3349 2.39744 28.8815C2.94048 29.428 3.61754 29.8223 4.36087 30.025C7.09723 30.7608 18.0347 30.7608 18.0347 30.7608C18.0347 30.7608 28.9722 30.7608 31.7086 30.025C32.4519 29.8223 33.129 29.428 33.672 28.8815C34.2151 28.3349 34.605 27.6554 34.8029 26.9108C35.5347 24.1625 35.5347 18.4312 35.5347 18.4312C35.5347 18.4312 35.5347 12.7 34.8029 9.95167Z" fill="#FF0302"/>
<path d="M14.4552 23.6355V13.227L23.6029 18.4313L14.4552 23.6355Z" fill="#FEFEFE"/>
</g>
<defs>
<clipPath id="clip0_12_168">
<rect width="35" height="35" fill="white" transform="translate(0.5 0.931213)"/>
</clipPath>
</defs>
</svg>
